<svg viewBox="0 -0.5 81 27" fill="none" xmlns="http://www.w3.org/2000/svg">
<path d="M11.9693 17.2058V13.8364C11.9693 11.0336 10.0605 9.14961 7.21839 9.14961C5.88306 9.14961 4.74031 9.53983 3.82187 10.3077V9.42654H0V21.6157H3.82187V15.0134C3.82187 13.7022 4.72761 12.8231 6.07775 12.8231C7.33478 12.8231 8.1474 13.6644 8.1474 14.9672V17.9443C8.1474 20.3464 9.47638 21.6157 11.9904 21.6157H13.1565V17.9422H12.7121C12.2253 17.9422 11.9693 17.6883 11.9693 17.2058Z" fill="#09090B"/>
<path d="M20.2775 9.14961C16.5064 9.14961 13.6644 11.8895 13.6644 15.5211C13.6644 19.1527 16.5064 21.8926 20.2775 21.8926C24.0486 21.8926 26.8907 19.1527 26.8907 15.5211C26.8907 11.8895 24.0465 9.14961 20.2775 9.14961ZM20.2775 18.2191C18.739 18.2191 17.5793 17.0589 17.5793 15.5211C17.5793 13.9833 18.739 12.8231 20.2775 12.8231C21.816 12.8231 22.9757 13.9833 22.9757 15.5211C22.9757 17.0589 21.816 18.2191 20.2775 18.2191Z" fill="#09090B"/>
<path d="M74.3868 9.00695C70.6158 9.00695 67.7737 11.7469 67.7737 15.3784C67.7737 19.01 70.6158 21.7499 74.3868 21.7499C78.1579 21.7499 81 19.01 81 15.3784C81 11.7469 78.1558 9.00695 74.3868 9.00695ZM74.3868 18.0764C72.8484 18.0764 71.6887 16.9163 71.6887 15.3784C71.6887 13.8406 72.8484 12.6805 74.3868 12.6805C75.9253 12.6805 77.085 13.8406 77.085 15.3784C77.085 16.9163 75.9253 18.0764 74.3868 18.0764Z" fill="#09090B"/>
<path d="M35.6645 9.14961C34.3757 9.14961 33.216 9.55661 32.2912 10.3308V9.42654H28.4694V26.0004H32.2912V20.7115C33.216 21.4856 34.3757 21.8926 35.6645 21.8926C39.0504 21.8926 41.6025 19.1527 41.6025 15.5211C41.6025 11.8895 39.0504 9.14961 35.6645 9.14961ZM34.9894 18.2191C33.4509 18.2191 32.2912 17.0589 32.2912 15.5211C32.2912 13.9833 33.4509 12.8231 34.9894 12.8231C36.5279 12.8231 37.6876 13.9833 37.6876 15.5211C37.6876 17.0589 36.5279 18.2191 34.9894 18.2191Z" fill="#09090B"/>
<path d="M44.7621 3.84177C43.4479 3.84177 42.4554 4.81523 42.4554 6.10547C42.4554 7.39572 43.4479 8.39225 44.7621 8.39225C46.0762 8.39225 47.092 7.4083 47.092 6.10547C47.092 4.80264 46.091 3.84177 44.7621 3.84177Z" fill="#09090B"/>
<path d="M46.673 9.42654H42.8511V21.6157H46.673V9.42654Z" fill="#09090B"/>
<path d="M66.578 17.6421C66.5442 17.6673 66.5209 17.682 66.5188 17.6862C65.7104 18.324 64.6036 19.1988 63.9412 19.073C63.7444 19.0352 63.5751 18.8862 63.4228 18.6198C63.2492 18.3156 63.0059 17.6023 62.9551 17.1785C64.2671 15.9302 66.0913 13.9372 67.4838 11.4133C68.8847 8.87268 69.5175 6.40548 69.3609 4.07885C69.2297 2.12145 68.2689 0.615115 66.8531 0.145172C65.5771 -0.276518 64.1804 0.243776 63.0165 1.57598C60.4939 4.46907 59.4147 10.9748 59.3279 14.3966C59.3194 14.7575 59.3343 15.1099 59.347 15.4498C59.3512 15.5652 59.3554 15.6806 59.3575 15.8022C58.9978 16.1568 58.6042 16.5113 58.1979 16.8533L57.1757 17.6254C57.1419 17.6547 57.1334 17.661 57.1017 17.6862C56.2933 18.324 55.1886 19.1967 54.5262 19.0709C54.3294 19.0331 54.1601 18.8841 54.0078 18.6177C53.8321 18.3114 53.5887 17.5939 53.5401 17.1764C54.8521 15.9281 56.6763 13.9351 58.0688 11.4112C59.4697 8.87058 60.1024 6.40338 59.9458 4.07675C59.8146 2.11935 58.8539 0.613017 57.4381 0.143074C56.1621 -0.278615 54.7654 0.241678 53.6014 1.57388C51.0789 4.46697 49.9997 10.9727 49.9129 14.3945C49.9044 14.7596 49.9192 15.1246 49.9319 15.4477C49.9362 15.5631 49.9404 15.6785 49.9425 15.8001C49.6187 16.119 48.804 16.91 48.5289 17.1512L48.4569 17.2142V21.2821L48.7828 21.0765C48.9818 20.9506 49.3965 20.5961 49.7965 20.2562C50.0653 20.0275 50.3192 19.8114 50.4652 19.7002C50.5287 19.652 50.5901 19.6058 50.6515 19.5618C51.0832 20.6548 51.79 21.5192 52.6576 22.0101C53.2544 22.3479 53.902 22.5199 54.5855 22.5199C55.5992 22.5199 56.8519 22.1423 57.855 21.5339C58.1936 21.3283 58.8094 20.7408 59.3512 20.2226C59.6157 19.9709 59.8654 19.7317 60.0326 19.5828C60.0432 19.5744 60.0538 19.5681 60.0643 19.5597C60.4961 20.6548 61.2029 21.5171 62.0705 22.0101C62.6673 22.3479 63.3148 22.5199 63.9984 22.5199C64.9486 22.5199 65.977 22.1884 67.0563 21.5339C67.3208 21.3744 67.7779 21.001 68.4191 20.424C67.5748 19.6835 66.9378 18.7331 66.5759 17.6401L66.578 17.6421ZM63.2302 10.3664C63.6175 8.20763 64.61 4.69145 65.7823 3.63198C66.049 4.48165 66.0871 6.65514 64.5634 9.5755C64.1296 10.4063 63.5984 11.2308 62.9762 12.0364C63.0376 11.514 63.1223 10.9622 63.2281 10.3664H63.2302ZM53.8173 10.3664C54.2046 8.20763 55.1949 4.69355 56.3694 3.63198C56.6361 4.48165 56.6742 6.65514 55.1505 9.5755C54.7167 10.4063 54.1855 11.2308 53.5655 12.0364C53.6268 11.514 53.7115 10.9622 53.8173 10.3664Z" fill="#09090B"/>
</svg>
